<?xml version="1.0" standalone="no"?>
<!DOCTYPE svg PUBLIC "-//W3C//DTD SVG 20010904//EN"
 "http://www.w3.org/TR/2001/REC-SVG-20010904/DTD/svg10.dtd">
<svg version="1.0" xmlns="http://www.w3.org/2000/svg"
 width="700.000000pt" height="700.000000pt" viewBox="0 0 700.000000 700.000000"
 preserveAspectRatio="xMidYMid meet">
<metadata>
Created by potrace 1.14, written by Peter Selinger 2001-2017
</metadata>
<g transform="translate(0.000000,700.000000) scale(0.100000,-0.100000)"
fill="#000000" stroke="none">
<path d="M1806 6502 c-3 -3 -16 -6 -28 -6 -13 -1 -27 -4 -33 -8 -5 -3 -18 -4
-27 -3 -10 2 -18 -2 -18 -8 0 -5 -3 -7 -7 -4 -3 4 -12 2 -20 -4 -7 -6 -13 -9
-13 -6 0 7 -123 -42 -130 -52 -3 -3 -27 -17 -54 -31 -27 -14 -53 -33 -60 -42
-6 -10 -16 -18 -23 -18 -7 0 -18 -9 -25 -20 -7 -11 -18 -20 -25 -20 -7 0 -13
-5 -13 -11 0 -6 -17 -29 -37 -50 -21 -22 -37 -43 -37 -47 1 -4 -10 -18 -25
-31 -14 -13 -20 -20 -12 -15 8 4 3 -8 -11 -27 -15 -19 -30 -46 -33 -61 -4 -16
-10 -28 -14 -28 -4 0 -13 -21 -21 -47 -7 -27 -14 -50 -15 -53 -19 -66 -25
-111 -26 -200 -1 -77 4 -120 12 -120 4 0 10 -11 13 -24 6 -24 79 -106 95 -106
5 0 17 -7 26 -16 9 -9 27 -16 41 -16 13 0 24 -3 24 -7 0 -4 29 -7 64 -6 35 0
62 3 59 8 -2 4 7 7 21 7 14 0 35 9 46 20 11 11 25 20 30 20 6 0 10 5 10 11 0
5 5 7 10 4 6 -3 10 -3 10 2 0 4 11 21 25 37 14 16 25 35 25 43 0 7 4 13 9 13
6 0 8 9 6 20 -2 11 0 20 6 20 5 0 8 3 8 8 -1 4 -1 9 0 12 1 3 3 30 5 61 3 55
24 119 39 119 5 0 6 4 2 9 -5 8 26 42 80 89 8 6 21 12 30 12 8 0 15 4 15 8 0
5 6 9 13 10 6 1 35 4 62 7 70 9 135 11 135 5 0 -3 28 -4 62 -3 35 2 97 3 138
2 112 0 110 0 176 2 33 2 65 -1 71 -4 7 -4 14 -3 18 3 4 6 10 8 15 5 5 -3 42
-5 82 -5 40 0 102 0 138 0 75 -1 86 -1 143 1 23 1 47 0 52 -1 6 -1 15 -1 20 0
6 1 46 1 90 0 80 -1 104 -1 128 0 13 1 101 1 207 0 75 -1 85 -1 143 1 23 1 47
0 52 -1 6 -1 15 -1 20 0 6 1 46 1 90 0 101 -2 95 -2 193 2 45 2 82 1 82 -2 0
-3 28 -4 62 -3 35 2 97 3 138 2 112 0 110 0 176 2 33 2 65 0 71 -4 5 -4 13 -3
17 0 8 8 123 6 136 -2 6 -4 10 -2 10 2 0 10 63 8 79 -2 6 -3 11 -2 11 3 0 6
14 7 35 2 19 -4 35 -5 35 -1 0 3 17 5 38 3 48 -4 49 -4 105 0 26 2 47 1 47 -2
0 -3 28 -4 62 -3 35 2 97 3 138 2 112 0 110 0 176 2 33 2 65 0 71 -4 5 -4 13
-3 17 0 8 8 123 6 136 -2 6 -4 10 -2 10 2 0 10 63 8 79 -2 6 -3 11 -2 11 3 0
6 14 7 35 2 19 -4 35 -5 35 -1 0 3 17 5 38 3 48 -4 49 -4 105 0 26 2 47 1 47
-2 0 -3 28 -4 62 -3 104 4 211 4 241 0 15 -2 27 -1 27 3 0 8 68 -10 118 -31
17 -7 32 -19 32 -27 0 -7 4 -11 9 -8 11 7 66 -59 82 -100 7 -16 14 -42 16 -59
8 -64 8 -2835 0 -2835 -5 0 -6 -4 -2 -9 3 -5 0 -13 -6 -16 -5 -4 -8 -13 -5
-20 2 -7 -2 -16 -10 -19 -8 -3 -14 -13 -14 -22 0 -33 -128 -133 -152 -118 -4
3 -8 0 -8 -7 0 -7 -3 -9 -7 -6 -3 4 -12 2 -20 -4 -8 -7 -13 -8 -13 -1 0 6 -13
7 -35 2 -19 -4 -37 -5 -40 0 -2 4 -24 4 -47 0 -24 -3 -54 -3 -68 0 -14 4 -34
4 -45 0 -11 -4 -31 -4 -45 0 l-24 6 -3 739 c-2 407 -4 750 -5 763 -2 12 -7 22
-11 22 -5 0 -6 4 -2 10 3 5 -1 25 -9 45 -8 19 -16 39 -16 43 -3 22 -36 102
-42 102 -5 0 -8 9 -8 20 0 11 -4 20 -10 20 -5 0 -10 7 -10 15 0 8 -4 15 -10
15 -5 0 -9 3 -7 8 1 4 -8 18 -20 32 -13 13 -23 28 -23 32 0 5 -11 20 -25 34
-14 14 -25 29 -25 35 0 6 -5 7 -10 4 -6 -3 -13 1 -16 9 -3 9 -10 13 -15 10 -5
-3 -9 1 -9 9 0 14 -139 114 -152 109 -5 -1 -8 3 -8 9 0 5 -4 7 -10 4 -5 -3
-10 -2 -10 3 0 5 -10 13 -22 17 -13 4 -27 9 -33 11 -90 32 -129 43 -136 38 -5
-3 -9 -1 -9 3 0 5 -8 10 -17 11 -39 6 -4513 8 -4513 2 0 -3 -12 -5 -27 -5 -16
1 -35 -2 -44 -6 -8 -4 -26 -9 -40 -11 -13 -2 -30 -7 -36 -11 -7 -5 -18 -5 -25
-1 -7 4 -8 3 -4 -4 5 -8 0 -12 -12 -12 -21 0 -105 -40 -110 -53 -2 -4 -7 -5
-11 -3 -4 3 -20 -6 -36 -20 -15 -13 -31 -24 -35 -24 -4 0 -21 -13 -38 -30 -18
-16 -36 -30 -42 -30 -5 0 -10 -4 -10 -10 0 -5 -15 -24 -33 -42 -34 -34 -131
-168 -122 -168 3 0 -2 -11 -11 -25 -9 -14 -12 -25 -8 -25 5 0 1 -5 -8 -10 -10
-6 -15 -19 -13 -30 2 -11 -1 -20 -6 -20 -6 0 -8 -4 -4 -9 3 -5 -1 -15 -8 -23
-8 -7 -12 -19 -9 -26 2 -7 -1 -19 -8 -27 -6 -8 -9 -19 -5 -25 4 -6 1 -17 -5
-25 -9 -11 -9 -15 -1 -15 6 0 11 -5 11 -11 0 -5 -5 -7 -10 -4 -14 8 -9 -2984
5 -3005 5 -8 10 -21 10 -30 4 -43 18 -80 27 -74 7 4 8 2 4 -5 -7 -11 51 -151
63 -151 3 0 12 -12 18 -27 7 -16 35 -53 63 -83 27 -30 50 -58 50 -62 0 -5 6
-8 13 -8 7 0 23 -13 37 -29 13 -17 27 -28 32 -25 4 3 8 0 8 -6 0 -6 5 -8 10
-5 6 3 10 2 10 -3 0 -12 66 -52 86 -52 8 0 12 -4 9 -10 -3 -5 0 -10 8 -10 8 0
27 -7 43 -14 15 -8 31 -13 36 -10 4 3 8 0 8 -6 0 -6 4 -9 9 -5 5 3 12 1 16 -5
4 -6 11 -8 16 -4 5 3 16 1 24 -6 7 -6 32 -12 54 -13 23 -1 41 -4 41 -8 0 -9
4449 -9 4454 0 3 4 23 6 45 4 23 -1 41 1 41 5 0 7 25 12 68 15 6 0 12 5 12 10
0 5 7 7 15 3 8 -3 15 -2 15 3 0 8 56 25 73 22 4 0 7 3 7 8 0 5 14 14 30 20 17
5 30 15 30 20 0 6 3 10 8 9 10 -3 48 19 79 45 52 44 123 113 123 120 0 11 38
46 44 41 3 -2 4 -1 1 2 -8 12 16 45 27 38 7 -4 8 -3 4 5 -4 6 2 23 13 37 12
15 21 38 21 51 0 14 4 21 10 18 6 -3 10 3 10 14 0 12 4 21 10 21 5 0 7 7 4 15
-4 8 -1 15 5 15 6 0 8 7 5 15 -4 8 -2 15 4 15 5 0 9 10 8 23 -1 12 2 24 5 27
4 3 10 25 13 50 2 25 5 45 7 45 1 0 3 205 4 455 2 250 3 457 4 460 1 3 77 4
171 4 107 -1 167 2 164 8 -4 6 4 5 16 -2 13 -7 25 -8 29 -3 3 5 17 10 31 10
29 2 51 6 65 14 6 3 17 5 25 4 8 0 18 3 21 8 3 4 18 10 33 13 15 2 39 12 52
21 13 8 24 13 24 9 0 -3 16 6 36 19 20 14 41 22 47 18 5 -3 7 -2 4 4 -4 6 5
15 18 21 14 7 25 16 25 22 0 5 6 10 12 10 17 0 169 161 162 171 -3 5 -1 9 5 9
11 0 47 60 43 73 -1 4 2 7 7 7 5 0 15 16 22 35 7 19 16 35 21 35 4 0 5 7 2 15
-4 8 -1 15 7 15 7 0 9 3 6 7 -4 3 -2 12 4 20 6 7 9 13 6 13 -3 0 1 23 8 52 8
28 12 55 9 60 -3 4 -1 8 5 8 15 0 15 2956 0 2966 -8 4 -7 9 2 15 9 6 10 9 2 9
-6 0 -10 8 -8 18 1 9 0 22 -4 27 -7 12 -10 26 -20 88 0 5 -5 6 -10 3 -5 -4 -8
1 -7 11 2 9 -7 35 -18 57 -11 23 -19 44 -18 49 1 4 -3 7 -8 7 -6 0 -10 5 -10
11 0 6 -9 22 -20 36 -11 14 -17 30 -13 36 3 5 1 7 -4 4 -11 -7 -28 20 -24 36
1 5 -2 7 -6 5 -10 -5 -82 70 -75 77 3 3 -2 5 -12 5 -9 0 -14 5 -11 10 3 6 -1
10 -9 10 -9 0 -16 4 -16 8 0 4 -14 17 -31 27 -17 11 -43 28 -58 38 -14 9 -46
27 -71 38 -25 12 -46 25 -48 30 -2 4 -10 5 -18 2 -8 -3 -14 -1 -14 5 0 6 -8 9
-17 7 -10 -1 -23 1 -28 6 -6 4 -22 9 -35 11 -14 2 -29 6 -35 9 -5 4 -20 5 -32
4 -13 -1 -23 2 -23 6 0 8 -4476 10 -4484 1z m-493 -2182 c18 4 41 4 52 0 11
-4 30 -4 42 1 12 5 25 4 28 0 3 -5 20 -6 38 -2 18 5 41 5 52 1 11 -4 30 -4 42
1 12 5 25 4 28 0 3 -5 20 -6 38 -2 18 5 41 5 52 1 11 -4 30 -4 42 1 12 5 25 4
28 0 3 -5 20 -6 38 -2 18 5 41 5 52 1 11 -4 30 -4 42 1 12 5 25 4 28 0 3 -5
20 -6 38 -2 18 5 41 5 52 1 11 -4 30 -4 42 1 12 5 25 4 28 0 3 -5 20 -6 38 -2
18 5 41 5 52 1 11 -4 30 -4 42 1 12 5 25 4 28 0 3 -5 20 -6 38 -2 18 5 41 5
52 1 11 -4 30 -4 42 1 12 5 25 4 28 0 3 -5 20 -6 38 -2 18 5 41 5 52 1 11 -4
29 -4 40 0 11 4 29 6 40 4 24 -4 68 -5 148 -4 32 0 62 -2 67 -5 6 -3 10 -3 10
2 0 4 42 7 92 6 132 -3 141 -3 158 -2 8 1 33 1 55 0 22 -1 66 -1 98 -1 32 0
62 -2 67 -5 6 -3 10 -3 10 2 0 4 42 7 92 6 132 -3 141 -3 158 -2 8 1 33 1 55
0 22 -1 66 -1 98 -1 32 0 62 -2 67 -5 6 -3 10 -3 10 2 0 4 42 7 92 6 132 -3
141 -3 158 -2 8 1 33 1 55 0 22 -1 66 -1 98 -1 32 0 62 -2 67 -5 6 -3 10 -3
10 2 0 4 42 7 92 6 132 -3 141 -3 158 -2 8 1 33 1 55 0 22 -1 66 -1 98 -1 32
0 62 -2 67 -5 6 -3 10 -3 10 2 0 4 42 7 92 6 98 -3 110 -3 198 -4 30 0 56 -2
58 -4 2 -2 14 0 26 5 12 4 29 4 38 -1 9 -5 28 -10 42 -11 14 -1 26 -6 26 -10
0 -4 8 -8 18 -8 10 0 24 -9 32 -19 7 -11 17 -18 20 -16 3 2 13 -5 21 -17 8
-11 24 -34 37 -49 13 -16 21 -33 17 -39 -3 -5 -1 -10 4 -10 6 0 11 -9 11 -20
0 -11 6 -20 13 -21 6 0 8 -2 2 -5 -6 -2 -9 -43 -7 -101 2 -54 3 -107 3 -118 0
-11 -1 -37 0 -57 0 -21 -4 -39 -8 -39 -4 -1 -915 -3 -2024 -4 -1922 -1 -2018
-2 -2044 -19 -15 -10 -24 -12 -19 -5 4 7 -10 2 -31 -11 -41 -25 -101 -80 -88
-80 4 0 1 -6 -8 -13 -17 -12 -19 -18 -19 -41 0 -8 -6 -16 -13 -19 -11 -4 -12
48 -10 272 3 310 4 321 16 321 4 0 5 5 2 10 -4 6 -2 17 4 24 6 7 12 23 14 35
2 13 9 26 16 30 7 5 12 11 12 15 -3 23 3 27 49 25 27 -2 53 1 57 5 4 4 9 3 11
-2 2 -6 17 -7 35 -2z m-203 -754 c0 -3 -4 -8 -10 -11 -5 -3 -10 -1 -10 4 0 6
5 11 10 11 6 0 10 -2 10 -4z m-3 -145 c2 -25 50 -101 76 -121 11 -8 28 -23 38
-32 11 -10 19 -16 19 -13 0 3 9 1 21 -5 11 -6 30 -14 42 -17 12 -3 929 -6
2037 -6 l2015 -2 2 -35 c1 -19 2 -46 3 -60 1 -14 1 -61 0 -105 0 -44 1 -92 3
-107 2 -16 0 -28 -5 -28 -5 0 -6 -4 -3 -10 3 -5 5 -38 5 -72 0 -35 0 -92 0
-128 1 -68 1 -92 0 -112 -1 -7 -1 -42 -1 -78 0 -36 1 -92 1 -125 0 -33 1 -72
3 -87 3 -16 0 -28 -5 -28 -5 0 -6 -4 -3 -10 3 -5 5 -38 5 -72 0 -35 0 -92 0
-128 1 -74 1 -65 1 -185 -2 -213 -2 -242 -1 -285 2 -200 -3 -330 -13 -330 -5
0 -7 -6 -4 -12 5 -15 -47 -96 -76 -118 -11 -8 -28 -23 -38 -32 -11 -10 -19
-16 -19 -13 0 2 -12 0 -27 -6 -16 -6 -37 -13 -48 -15 -29 -6 -214 -8 -220 -2
-2 2 -30 1 -60 -2 -31 -3 -58 -2 -61 2 -3 5 -10 6 -15 2 -11 -6 -498 -8 -505
-2 -2 2 -29 1 -59 -2 -31 -3 -58 -2 -61 2 -3 5 -10 6 -15 2 -11 -7 -338 -8
-344 -2 -3 2 -30 1 -60 -2 -31 -3 -58 -2 -61 2 -3 5 -10 5 -16 2 -11 -7 -176
-9 -183 -2 -3 2 -30 1 -60 -2 -31 -3 -58 -3 -61 1 -3 5 -11 6 -19 2 -20 -7
-275 -10 -275 -2 0 3 -24 2 -52 -2 -29 -3 -60 -3 -69 2 -9 5 -18 6 -21 4 -6
-6 -237 -9 -243 -3 -2 2 -30 1 -60 -2 -31 -3 -58 -3 -61 1 -3 5 -11 6 -19 3
-19 -8 -435 -11 -435 -3 0 3 -24 2 -52 -2 -29 -3 -59 -3 -66 1 -8 3 -34 4 -58
0 -25 -4 -47 -4 -49 0 -2 3 -29 3 -60 0 -31 -3 -58 -2 -61 2 -3 5 -10 5 -16 2
-11 -7 -176 -9 -183 -2 -3 2 -30 1 -60 -2 -31 -3 -58 -2 -61 2 -3 5 -10 5 -16
2 -5 -3 -62 -6 -126 -6 l-117 0 -23 33 c-12 18 -21 37 -19 43 2 6 -2 17 -10
24 -12 12 -18 47 -14 80 1 6 -2 12 -6 12 -6 0 -10 2168 -4 2203 2 13 7 7 8
-12z"/>
<path d="M3390 2128 c0 -5 -7 -8 -15 -8 -25 0 -92 -38 -125 -70 -17 -17 -27
-30 -23 -30 4 0 -2 -7 -13 -15 -10 -8 -15 -15 -10 -15 5 0 3 -6 -3 -14 -7 -8
-14 -25 -18 -37 -10 -41 -10 -133 0 -146 5 -7 6 -13 2 -13 -4 0 -2 -7 5 -15 7
-8 9 -15 6 -15 -10 0 49 -82 73 -102 12 -10 21 -14 21 -10 0 4 5 0 10 -8 5 -8
13 -15 17 -15 4 -1 26 -7 48 -15 32 -11 152 -14 633 -14 325 -1 592 2 592 5 0
3 7 6 15 6 21 0 95 35 95 45 0 4 7 8 17 8 9 0 13 3 10 6 -3 4 5 15 18 26 14
11 25 26 25 34 0 8 4 14 9 14 5 0 12 15 16 33 4 17 9 39 12 47 8 29 3 113 -7
125 -5 6 -7 15 -3 18 3 4 1 7 -5 7 -6 0 -9 7 -6 15 4 8 1 15 -5 15 -6 0 -11 5
-11 11 0 16 -66 79 -106 101 -19 10 -34 15 -34 12 0 -4 -7 -1 -16 6 -12 11
-141 14 -620 14 -332 1 -604 -2 -604 -6z"/>
</g>
</svg>
